<svg width="196" height="42" viewBox="0 0 196 42" fill="none" xmlns="http://www.w3.org/2000/svg">
<ellipse cx="21" cy="21" rx="21" ry="21" fill="#A4C6CB"/>
<path d="M26.679 21.529C27.123 21.529 27.51 21.475 27.84 21.367C28.17 21.253 28.443 21.094 28.659 20.89C28.881 20.68 29.046 20.428 29.154 20.134C29.262 19.834 29.316 19.501 29.316 19.135C29.316 18.787 29.262 18.472 29.154 18.19C29.046 17.908 28.884 17.668 28.668 17.47C28.452 17.272 28.179 17.122 27.849 17.02C27.519 16.912 27.129 16.858 26.679 16.858H24.87V21.529H26.679ZM26.679 14.986C27.549 14.986 28.302 15.088 28.938 15.292C29.574 15.496 30.099 15.781 30.513 16.147C30.927 16.513 31.233 16.951 31.431 17.461C31.635 17.971 31.737 18.529 31.737 19.135C31.737 19.765 31.632 20.344 31.422 20.872C31.212 21.394 30.897 21.844 30.477 22.222C30.057 22.6 29.529 22.894 28.893 23.104C28.263 23.314 27.525 23.419 26.679 23.419H24.87V28H22.449V14.986H26.679ZM37.8393 24.058C37.1973 24.088 36.6573 24.145 36.2193 24.229C35.7813 24.307 35.4303 24.409 35.1663 24.535C34.9023 24.661 34.7133 24.808 34.5993 24.976C34.4853 25.144 34.4283 25.327 34.4283 25.525C34.4283 25.915 34.5423 26.194 34.7703 26.362C35.0043 26.53 35.3073 26.614 35.6793 26.614C36.1353 26.614 36.5283 26.533 36.8583 26.371C37.1943 26.203 37.5213 25.951 37.8393 25.615V24.058ZM32.7453 20.053C33.8073 19.081 35.0853 18.595 36.5793 18.595C37.1193 18.595 37.6023 18.685 38.0283 18.865C38.4543 19.039 38.8143 19.285 39.1083 19.603C39.4023 19.915 39.6243 20.29 39.7743 20.728C39.9303 21.166 40.0083 21.646 40.0083 22.168V28H39.0003C38.7903 28 38.6283 27.97 38.5143 27.91C38.4003 27.844 38.3103 27.715 38.2443 27.523L38.0463 26.857C37.8123 27.067 37.5843 27.253 37.3623 27.415C37.1403 27.571 36.9093 27.703 36.6693 27.811C36.4293 27.919 36.1713 28 35.8953 28.054C35.6253 28.114 35.3253 28.144 34.9953 28.144C34.6053 28.144 34.2453 28.093 33.9153 27.991C33.5853 27.883 33.3003 27.724 33.0603 27.514C32.8203 27.304 32.6343 27.043 32.5023 26.731C32.3703 26.419 32.3043 26.056 32.3043 25.642C32.3043 25.408 32.3433 25.177 32.4213 24.949C32.4993 24.715 32.6253 24.493 32.7993 24.283C32.9793 24.073 33.2103 23.875 33.4923 23.689C33.7743 23.503 34.1193 23.341 34.5273 23.203C34.9413 23.065 35.4213 22.954 35.9673 22.87C36.5133 22.78 37.1373 22.726 37.8393 22.708V22.168C37.8393 21.55 37.7073 21.094 37.4433 20.8C37.1793 20.5 36.7983 20.35 36.3003 20.35C35.9403 20.35 35.6403 20.392 35.4003 20.476C35.1663 20.56 34.9593 20.656 34.7793 20.764C34.5993 20.866 34.4343 20.959 34.2843 21.043C34.1403 21.127 33.9783 21.169 33.7983 21.169C33.6423 21.169 33.5103 21.13 33.4023 21.052C33.2943 20.968 33.2073 20.872 33.1413 20.764L32.7453 20.053ZM50.1479 18.766V28H47.9249V23.914H44.3249V28H42.1019V18.766H44.3249V22.267H47.9249V18.766H50.1479ZM56.121 26.407C56.625 26.407 57 26.281 57.246 26.029C57.498 25.777 57.624 25.453 57.624 25.057C57.624 24.889 57.594 24.727 57.534 24.571C57.48 24.415 57.393 24.277 57.273 24.157C57.153 24.037 56.997 23.944 56.805 23.878C56.613 23.806 56.382 23.77 56.112 23.77H54.465V26.407H56.121ZM56.103 22.186C56.745 22.186 57.288 22.264 57.732 22.42C58.176 22.576 58.536 22.786 58.812 23.05C59.088 23.314 59.286 23.62 59.406 23.968C59.532 24.31 59.595 24.67 59.595 25.048C59.595 25.48 59.517 25.879 59.361 26.245C59.211 26.605 58.986 26.917 58.686 27.181C58.392 27.439 58.029 27.64 57.597 27.784C57.171 27.928 56.682 28 56.13 28H52.35V18.766H54.465V22.186H56.103ZM73.8573 18.766V28H61.0863V18.766H63.3093V26.353H66.3603V18.766H68.5833V26.353H71.6343V18.766H73.8573ZM81.9943 22.321C81.9943 22.033 81.9523 21.763 81.8683 21.511C81.7903 21.253 81.6703 21.028 81.5083 20.836C81.3463 20.644 81.1393 20.494 80.8873 20.386C80.6413 20.272 80.3533 20.215 80.0233 20.215C79.3813 20.215 78.8743 20.398 78.5023 20.764C78.1363 21.13 77.9023 21.649 77.8003 22.321H81.9943ZM77.7553 23.662C77.7913 24.136 77.8753 24.547 78.0073 24.895C78.1393 25.237 78.3133 25.522 78.5293 25.75C78.7453 25.972 79.0003 26.14 79.2943 26.254C79.5943 26.362 79.9243 26.416 80.2843 26.416C80.6443 26.416 80.9533 26.374 81.2113 26.29C81.4753 26.206 81.7033 26.113 81.8953 26.011C82.0933 25.909 82.2643 25.816 82.4083 25.732C82.5583 25.648 82.7023 25.606 82.8403 25.606C83.0263 25.606 83.1643 25.675 83.2543 25.813L83.8933 26.623C83.6473 26.911 83.3713 27.154 83.0653 27.352C82.7593 27.544 82.4383 27.7 82.1023 27.82C81.7723 27.934 81.4333 28.015 81.0853 28.063C80.7433 28.111 80.4103 28.135 80.0863 28.135C79.4443 28.135 78.8473 28.03 78.2953 27.82C77.7433 27.604 77.2633 27.289 76.8553 26.875C76.4473 26.455 76.1263 25.939 75.8923 25.327C75.6583 24.709 75.5413 23.995 75.5413 23.185C75.5413 22.555 75.6433 21.964 75.8473 21.412C76.0513 20.854 76.3423 20.371 76.7203 19.963C77.1043 19.549 77.5693 19.222 78.1153 18.982C78.6673 18.742 79.2883 18.622 79.9783 18.622C80.5603 18.622 81.0973 18.715 81.5893 18.901C82.0813 19.087 82.5043 19.36 82.8583 19.72C83.2123 20.074 83.4883 20.512 83.6863 21.034C83.8903 21.55 83.9923 22.141 83.9923 22.807C83.9923 23.143 83.9563 23.371 83.8843 23.491C83.8123 23.605 83.6743 23.662 83.4703 23.662H77.7553ZM94.3755 26.515C95.1435 26.515 95.7165 26.269 96.0945 25.777C96.4725 25.285 96.6615 24.565 96.6615 23.617C96.6615 22.675 96.4755 21.958 96.1035 21.466C95.7375 20.974 95.1765 20.728 94.4205 20.728C93.6645 20.728 93.0885 20.962 92.6925 21.43C92.2965 21.892 92.0985 22.585 92.0985 23.509C92.0985 24.487 92.2845 25.234 92.6565 25.75C93.0345 26.26 93.6075 26.515 94.3755 26.515ZM95.0235 17.092C94.4595 17.128 93.9765 17.239 93.5745 17.425C93.1785 17.605 92.8485 17.851 92.5845 18.163C92.3265 18.469 92.1285 18.838 91.9905 19.27C91.8585 19.696 91.7805 20.17 91.7565 20.692C91.9065 20.458 92.0895 20.245 92.3055 20.053C92.5275 19.855 92.7735 19.687 93.0435 19.549C93.3195 19.405 93.6165 19.294 93.9345 19.216C94.2585 19.138 94.6035 19.099 94.9695 19.099C95.5815 19.099 96.1335 19.207 96.6255 19.423C97.1175 19.639 97.5345 19.945 97.8765 20.341C98.2245 20.737 98.4885 21.214 98.6685 21.772C98.8545 22.324 98.9475 22.936 98.9475 23.608C98.9475 24.304 98.8365 24.931 98.6145 25.489C98.3985 26.047 98.0895 26.524 97.6875 26.92C97.2915 27.31 96.8115 27.61 96.2475 27.82C95.6835 28.03 95.0595 28.135 94.3755 28.135C93.7095 28.135 93.0945 28.027 92.5305 27.811C91.9725 27.595 91.4895 27.244 91.0815 26.758C90.6735 26.272 90.3555 25.642 90.1275 24.868C89.8995 24.088 89.7855 23.137 89.7855 22.015C89.7855 21.073 89.8725 20.197 90.0465 19.387C90.2205 18.577 90.5055 17.869 90.9015 17.263C91.2975 16.651 91.8165 16.159 92.4585 15.787C93.1005 15.415 93.8925 15.193 94.8345 15.121L98.1195 14.869L98.2365 16.021C98.2605 16.267 98.2245 16.477 98.1285 16.651C98.0325 16.819 97.8615 16.909 97.6155 16.921L95.0235 17.092ZM104.443 26.407C104.947 26.407 105.322 26.281 105.568 26.029C105.82 25.777 105.946 25.453 105.946 25.057C105.946 24.889 105.916 24.727 105.856 24.571C105.802 24.415 105.715 24.277 105.595 24.157C105.475 24.037 105.319 23.944 105.127 23.878C104.935 23.806 104.704 23.77 104.434 23.77H102.787V26.407H104.443ZM104.425 22.186C105.067 22.186 105.61 22.264 106.054 22.42C106.498 22.576 106.858 22.786 107.134 23.05C107.41 23.314 107.608 23.62 107.728 23.968C107.854 24.31 107.917 24.67 107.917 25.048C107.917 25.48 107.839 25.879 107.683 26.245C107.533 26.605 107.308 26.917 107.008 27.181C106.714 27.439 106.351 27.64 105.919 27.784C105.493 27.928 105.004 28 104.452 28H100.672V18.766H102.787V22.186H104.425ZM111.823 18.766V28H109.6V18.766H111.823ZM122.582 28H120.359V20.467H118.091C118.019 21.601 117.908 22.579 117.758 23.401C117.608 24.217 117.428 24.91 117.218 25.48C117.014 26.05 116.783 26.509 116.525 26.857C116.273 27.199 116.003 27.466 115.715 27.658C115.427 27.85 115.13 27.976 114.824 28.036C114.518 28.102 114.209 28.135 113.897 28.135C113.567 28.135 113.324 28.105 113.168 28.045C113.018 27.991 112.943 27.913 112.943 27.811V26.425H113.474C113.672 26.425 113.87 26.395 114.068 26.335C114.266 26.275 114.458 26.152 114.644 25.966C114.83 25.78 115.007 25.516 115.175 25.174C115.343 24.826 115.496 24.37 115.634 23.806C115.778 23.236 115.904 22.54 116.012 21.718C116.12 20.896 116.204 19.912 116.264 18.766H122.582V28ZM128.858 18.622C129.542 18.622 130.163 18.733 130.721 18.955C131.285 19.177 131.765 19.492 132.161 19.9C132.563 20.308 132.872 20.806 133.088 21.394C133.304 21.982 133.412 22.639 133.412 23.365C133.412 24.097 133.304 24.757 133.088 25.345C132.872 25.933 132.563 26.434 132.161 26.848C131.765 27.262 131.285 27.58 130.721 27.802C130.163 28.024 129.542 28.135 128.858 28.135C128.168 28.135 127.541 28.024 126.977 27.802C126.413 27.58 125.93 27.262 125.528 26.848C125.132 26.434 124.823 25.933 124.601 25.345C124.385 24.757 124.277 24.097 124.277 23.365C124.277 22.639 124.385 21.982 124.601 21.394C124.823 20.806 125.132 20.308 125.528 19.9C125.93 19.492 126.413 19.177 126.977 18.955C127.541 18.733 128.168 18.622 128.858 18.622ZM128.858 26.425C129.626 26.425 130.193 26.167 130.559 25.651C130.931 25.135 131.117 24.379 131.117 23.383C131.117 22.387 130.931 21.628 130.559 21.106C130.193 20.584 129.626 20.323 128.858 20.323C128.078 20.323 127.499 20.587 127.121 21.115C126.749 21.637 126.563 22.393 126.563 23.383C126.563 24.373 126.749 25.129 127.121 25.651C127.499 26.167 128.078 26.425 128.858 26.425ZM147.405 20.413H144.111V28H141.888V20.413H138.603V18.766H147.405V20.413ZM153.539 24.058C152.897 24.088 152.357 24.145 151.919 24.229C151.481 24.307 151.13 24.409 150.866 24.535C150.602 24.661 150.413 24.808 150.299 24.976C150.185 25.144 150.128 25.327 150.128 25.525C150.128 25.915 150.242 26.194 150.47 26.362C150.704 26.53 151.007 26.614 151.379 26.614C151.835 26.614 152.228 26.533 152.558 26.371C152.894 26.203 153.221 25.951 153.539 25.615V24.058ZM148.445 20.053C149.507 19.081 150.785 18.595 152.279 18.595C152.819 18.595 153.302 18.685 153.728 18.865C154.154 19.039 154.514 19.285 154.808 19.603C155.102 19.915 155.324 20.29 155.474 20.728C155.63 21.166 155.708 21.646 155.708 22.168V28H154.7C154.49 28 154.328 27.97 154.214 27.91C154.1 27.844 154.01 27.715 153.944 27.523L153.746 26.857C153.512 27.067 153.284 27.253 153.062 27.415C152.84 27.571 152.609 27.703 152.369 27.811C152.129 27.919 151.871 28 151.595 28.054C151.325 28.114 151.025 28.144 150.695 28.144C150.305 28.144 149.945 28.093 149.615 27.991C149.285 27.883 149 27.724 148.76 27.514C148.52 27.304 148.334 27.043 148.202 26.731C148.07 26.419 148.004 26.056 148.004 25.642C148.004 25.408 148.043 25.177 148.121 24.949C148.199 24.715 148.325 24.493 148.499 24.283C148.679 24.073 148.91 23.875 149.192 23.689C149.474 23.503 149.819 23.341 150.227 23.203C150.641 23.065 151.121 22.954 151.667 22.87C152.213 22.78 152.837 22.726 153.539 22.708V22.168C153.539 21.55 153.407 21.094 153.143 20.8C152.879 20.5 152.498 20.35 152 20.35C151.64 20.35 151.34 20.392 151.1 20.476C150.866 20.56 150.659 20.656 150.479 20.764C150.299 20.866 150.134 20.959 149.984 21.043C149.84 21.127 149.678 21.169 149.498 21.169C149.342 21.169 149.21 21.13 149.102 21.052C148.994 20.968 148.907 20.872 148.841 20.764L148.445 20.053ZM163.318 19.351C163.426 19.177 163.573 19.036 163.759 18.928C163.945 18.82 164.143 18.766 164.353 18.766H166.099L163.948 22.195C163.798 22.435 163.645 22.63 163.489 22.78C163.333 22.924 163.144 23.038 162.922 23.122C163.222 23.212 163.468 23.347 163.66 23.527C163.852 23.701 164.026 23.923 164.182 24.193L166.342 28H164.803C164.413 28 164.11 27.934 163.894 27.802C163.678 27.67 163.495 27.481 163.345 27.235L161.986 24.679C161.866 24.457 161.71 24.292 161.518 24.184C161.332 24.076 161.113 24.022 160.861 24.022H160.024V28H157.801V18.766H160.024V22.573H160.744C160.996 22.573 161.197 22.528 161.347 22.438C161.503 22.342 161.635 22.198 161.743 22.006L163.318 19.351Z" fill="#796363"/>
</svg>
